# xmcd
#
# Track frame offsets:
#	150
#	13455
#	29268
#	42767
#	60848
#	75097
#	88016
#	103222
#	113175
#	127720
#	140175
#	153953
#	165540
#	183027
#
# Disc length: 2659 seconds
#
# Revision: 0
# Processed by: cddbd v1.5.2PL0 Copyright (c) Steve Scherf et al.
# Submitted via: EasyCDDAExtractor 11.0.0.1
#
DISCID=a30a610e
DTITLE=Ricardo and Raphael - Ricardo and Raphael Cd Promocional
DYEAR=2009
DGENRE=Sertanejo
TTITLE0=Minha Doce Paixão
TTITLE1=Coisa Mais Gostosa
TTITLE2=Cara de Safado
TTITLE3=Se é Pra Falar de Amor
TTITLE4=Ficar Por Ficar
TTITLE5=Decidi Te Esperar
TTITLE6=Amante Anônimo
TTITLE7=É Assim Que Eu Quero
TTITLE8=Duplamente Apaixonado
TTITLE9=Meu Coração Ama Você
TTITLE10=Deixa Cair
TTITLE11=Meu Anjo
TTITLE12=Em Algum Lugar do Passado (Ao Vivo)
TTITLE13=Ressaca de Amor (Ao Vivo)
EXTD=
EXTT0=
EXTT1=
EXTT2=
EXTT3=
EXTT4=
EXTT5=
EXTT6=
EXTT7=
EXTT8=
EXTT9=
EXTT10=
EXTT11=
EXTT12=
EXTT13=
PLAYORDER=
